<?xml version="1.0" encoding="utf-8"?>
<!-- Angie Radtke 2019  -->
<svg version="1.1" id="Ebene_6" xmlns="http://www.w3.org/2000/svg" xmlns:xlink="http://www.w3.org/1999/xlink" x="0px" y="0px"
	 width="250px" height="250px" viewBox="0 0 250 250" enable-background="new 0 0 250 250" xml:space="preserve">

<g>
	<rect x="13.5" y="78.5" fill="none" stroke="#030405" stroke-width="7" stroke-miterlimit="10" width="222" height="148"/>
	<rect x="13.5" y="28.5" fill="none" stroke="#030405" stroke-width="7" stroke-miterlimit="10" width="222" height="1"/>
	<rect x="13.5" y="29.5" fill="#030405" stroke="#030405" stroke-width="7" stroke-miterlimit="10" width="222" height="49"/>
</g>
<rect x="-309" y="83" fill="#030405" width="3" height="1"/>
<g>
	<rect x="35" y="104" fill="#030405" width="18" height="19"/>
	<rect x="62" y="104" fill="#030405" width="18" height="19"/>
	<rect x="88" y="104" fill="#030405" width="18" height="19"/>
	<rect x="114" y="104" fill="#030405" width="18" height="19"/>
	<rect x="140" y="104" fill="#030405" width="18" height="19"/>
	<rect x="166" y="104" fill="#030405" width="18" height="19"/>
	<rect x="191" y="104" fill="#030405" width="18" height="19"/>
</g>
<g>
	<rect x="35" y="132" fill="#030405" width="18" height="19"/>
	<rect x="62" y="132" fill="#030405" width="18" height="19"/>
	<rect x="88" y="132" fill="#030405" width="18" height="19"/>
	<rect x="114" y="132" fill="#030405" width="18" height="19"/>
	<rect x="140" y="132" fill="#030405" width="18" height="19"/>
	<rect x="166" y="132" fill="#030405" width="18" height="19"/>
	<rect x="191" y="132" fill="#030405" width="18" height="19"/>
</g>
<g>
	<rect x="35" y="159" fill="#030405" width="18" height="19"/>
	<rect x="62" y="159" fill="#030405" width="18" height="19"/>
	<rect x="88" y="159" fill="#030405" width="18" height="19"/>
	<rect x="114" y="159" fill="#030405" width="18" height="19"/>
	<rect x="140" y="159" fill="#030405" width="18" height="19"/>
	<rect x="166" y="159" fill="#030405" width="18" height="19"/>
	<rect x="191" y="159" fill="#030405" width="18" height="19"/>
</g>
<g>
	<rect x="35" y="187" fill="#030405" width="18" height="19"/>
	<rect x="62" y="187" fill="#030405" width="18" height="19"/>
	<rect x="88" y="187" fill="#030405" width="18" height="19"/>
	<rect x="114" y="187" fill="#030405" width="18" height="19"/>
	<rect x="140" y="187" fill="#030405" width="18" height="19"/>
	<rect x="166" y="187" fill="#030405" width="18" height="19"/>
	<rect x="191" y="187" fill="#030405" width="18" height="19"/>
</g>
<rect x="31" y="7" fill="#030405" stroke="#FFFFFF" stroke-width="6" stroke-miterlimit="10" width="15" height="34"/>
<rect x="210" y="13" fill="#030405" stroke="#FFFFFF" stroke-width="6" stroke-miterlimit="10" width="15" height="34"/>
</svg>
