<?xml version="1.0" encoding="utf-8"?>
<!-- Angie Radtke 2019  -->
<svg version="1.1" id="Ebene_4" xmlns="http://www.w3.org/2000/svg" xmlns:xlink="http://www.w3.org/1999/xlink" x="0px" y="0px"
	 width="250px" height="250px" viewBox="0 0 250 250" enable-background="new 0 0 250 250" xml:space="preserve">
<g>
	<g>
		<polygon fill="#030405" points="207.623,159.227 209.92,153.018 194.888,148.061 198.379,130.381 214.162,131.521 214.423,125 
			218.437,125 217.719,136.425 202.007,134.506 199.813,145.63 215.075,149.829 211.331,160.764 207.623,159.227 		"/>
	</g>
	<g>
		<polygon fill="#030405" points="188.231,188.231 192.715,183.371 180.73,173.032 190.757,158.047 204.89,165.165 207.623,159.227 
			211.331,160.764 206.284,171.062 192.52,163.247 186.214,172.675 198.694,182.409 191.069,191.069 188.231,188.231 		"/>
	</g>
	<g>
		<polygon fill="#030405" points="159.227,207.623 165.237,204.853 158.104,190.723 173.085,180.689 183.433,192.661 
			188.231,188.231 191.069,191.069 182.476,198.643 172.73,186.171 163.309,192.484 171.135,206.242 160.764,211.331 
			159.227,207.623 		"/>
	</g>
	<g>
		<polygon fill="#030405" points="125,214.423 131.602,214.156 130.447,198.37 148.125,194.87 153.095,209.894 159.227,207.623 
			160.764,211.331 149.91,215.052 145.698,199.795 134.575,201.998 136.509,217.708 125,218.437 125,214.423 		"/>
	</g>
	<g>
		<polygon fill="#030405" points="90.773,207.623 96.982,209.92 101.939,194.888 119.619,198.379 118.479,214.162 125,214.423 
			125,218.437 113.575,217.719 115.494,202.007 104.369,199.813 100.171,215.075 89.236,211.331 90.773,207.623 		"/>
	</g>
	<g>
		<polygon fill="#030405" points="61.769,188.231 66.628,192.715 76.968,180.73 91.953,190.757 84.835,204.89 90.773,207.623 
			89.236,211.331 78.938,206.284 86.753,192.52 77.325,186.214 67.591,198.694 58.931,191.069 61.769,188.231 		"/>
	</g>
	<g>
		<polygon fill="#030405" points="42.377,159.227 45.146,165.237 59.277,158.104 69.311,173.085 57.338,183.433 61.769,188.231 
			58.931,191.069 51.357,182.476 63.829,172.73 57.516,163.309 43.758,171.135 38.669,160.764 42.377,159.227 		"/>
	</g>
	<g>
		<polygon fill="#030405" points="35.577,125 35.844,131.601 51.63,130.447 55.13,148.125 40.106,153.095 42.377,159.227 
			38.669,160.764 34.948,149.91 50.205,145.698 48.002,134.575 32.292,136.509 31.563,125 35.577,125 		"/>
	</g>
	<g>
		<polygon fill="#030405" points="42.377,90.773 40.08,96.982 55.112,101.939 51.62,119.619 35.838,118.479 35.577,125 31.563,125 
			32.281,113.575 47.993,115.494 50.186,104.369 34.925,100.171 38.669,89.236 42.377,90.773 		"/>
	</g>
	<g>
		<polygon fill="#030405" points="61.769,61.769 57.285,66.628 69.27,76.968 59.243,91.953 45.11,84.835 42.377,90.773 
			38.669,89.236 43.716,78.938 57.48,86.753 63.786,77.325 51.305,67.591 58.931,58.931 61.769,61.769 		"/>
	</g>
	<g>
		<polygon fill="#030405" points="90.773,42.377 84.763,45.146 91.896,59.277 76.914,69.311 66.567,57.338 61.769,61.769 
			58.931,58.931 67.523,51.357 77.27,63.829 86.691,57.516 78.864,43.758 89.236,38.669 90.773,42.377 		"/>
	</g>
	<g>
		<polygon fill="#030405" points="125,35.577 118.398,35.844 119.553,51.63 101.875,55.13 96.906,40.106 90.773,42.377 
			89.236,38.669 100.089,34.948 104.302,50.205 115.424,48.002 113.491,32.292 125,31.563 125,35.577 		"/>
	</g>
	<g>
		<polygon fill="#030405" points="159.227,42.377 153.018,40.08 148.061,55.112 130.381,51.62 131.521,35.838 125,35.577 
			125,31.563 136.425,32.281 134.506,47.993 145.63,50.186 149.829,34.925 160.764,38.669 159.227,42.377 		"/>
	</g>
	<g>
		<polygon fill="#030405" points="188.231,61.769 183.371,57.285 173.032,69.27 158.047,59.243 165.165,45.11 159.227,42.377 
			160.764,38.669 171.062,43.716 163.247,57.48 172.675,63.786 182.409,51.305 191.069,58.931 188.231,61.769 		"/>
	</g>
	<g>
		<polygon fill="#030405" points="207.623,90.773 204.853,84.763 190.723,91.896 180.689,76.914 192.661,66.567 188.231,61.769 
			191.069,58.931 198.643,67.523 186.171,77.27 192.484,86.691 206.242,78.864 211.331,89.236 207.623,90.773 		"/>
	</g>
	<g>
		<polygon fill="#030405" points="214.423,125 214.156,118.398 198.37,119.552 194.87,101.875 209.894,96.905 207.623,90.773 
			211.331,89.236 215.052,100.089 199.795,104.302 201.998,115.424 217.708,113.491 218.437,125 214.423,125 		"/>
	</g>
</g>
</svg>
